<svg fill="#7749f8" height="800" width="800" version="1.1" id="Layer_1" viewBox="0 0 472.658 472.658" xml:space="preserve" sodipodi:docname="film-reel.svg" inkscape:version="1.3 (0e150ed6c4, 2023-07-21)" xmlns:inkscape="http://www.inkscape.org/namespaces/inkscape" xmlns:sodipodi="http://sodipodi.sourceforge.net/DTD/sodipodi-0.dtd" xmlns="http://www.w3.org/2000/svg" xmlns:svg="http://www.w3.org/2000/svg"><defs id="defs2" fill="#7749f8"/><sodipodi:namedview id="namedview2" pagecolor="#7749f8" bordercolor="#7749f8" borderopacity="1" inkscape:showpageshadow="0" inkscape:pageopacity="0" inkscape:pagecheckerboard="1" inkscape:deskcolor="#7749f8" inkscape:zoom="1.04625" inkscape:cx="301.55317" inkscape:cy="302.50896" inkscape:window-width="1825" inkscape:window-height="1051" inkscape:window-x="86" inkscape:window-y="-9" inkscape:window-maximized="1" inkscape:current-layer="Layer_1" fill="#7749f8"/>
<g id="g2">
	<g id="g1">
		<path d="m 472.572,327.116 h -0.005 c -0.697,0 -55.428,-0.981 -58.861,-96.663 C 410.084,129.602 340.978,91.568 293.191,89.806 262.552,66.797 224.601,52.996 183.334,52.996 82.08,52.996 0,135.077 0,236.33 c 0,101.252 82.08,183.332 183.333,183.332 101.252,0 183.332,-82.08 183.332,-183.331 0,-46.164 -17.191,-88.224 -45.353,-120.457 31.737,12.036 70.133,43.435 72.711,115.291 4.111,114.481 77.659,115.644 78.634,115.644 z m -360.114,-9.173 c -16.857,9.731 -38.41,3.956 -48.142,-12.899 -9.732,-16.855 -3.956,-38.411 12.899,-48.142 16.856,-9.733 38.41,-3.956 48.142,12.899 9.732,16.856 3.956,38.411 -12.899,48.142 z m 12.899,-115.087 c -9.732,16.856 -31.286,22.63 -48.142,12.899 -16.856,-9.731 -22.631,-31.284 -12.899,-48.14 9.732,-16.858 31.285,-22.632 48.142,-12.901 16.855,9.733 22.631,31.287 12.899,48.142 z m 57.976,170.902 c -19.464,0 -35.242,-15.779 -35.242,-35.243 0,-19.461 15.778,-35.24 35.242,-35.24 19.463,0 35.241,15.779 35.241,35.24 10e-4,19.465 -15.778,35.243 -35.241,35.243 z M 163.436,236.33 c 0,-10.988 8.908,-19.897 19.897,-19.897 10.988,0 19.896,8.909 19.896,19.897 0,10.987 -8.908,19.896 -19.896,19.896 -10.989,0 -19.897,-8.908 -19.897,-19.896 z m 19.897,-66.945 c -19.464,0 -35.242,-15.779 -35.242,-35.242 0,-19.465 15.778,-35.243 35.242,-35.243 19.463,0 35.241,15.778 35.241,35.243 10e-4,19.464 -15.778,35.242 -35.241,35.242 z M 302.35,305.044 c -9.732,16.856 -31.285,22.63 -48.142,12.899 -16.856,-9.731 -22.631,-31.286 -12.899,-48.142 9.732,-16.856 31.286,-22.632 48.142,-12.899 16.856,9.731 22.631,31.286 12.899,48.142 z m -12.9,-89.288 c -16.856,9.731 -38.41,3.956 -48.142,-12.899 -9.732,-16.856 -3.956,-38.409 12.899,-48.142 16.857,-9.731 38.41,-3.956 48.142,12.901 9.733,16.856 3.958,38.409 -12.899,48.14 z" id="path1" fill="#7749f8"/>
	</g>
</g>
<path style="fill:#7749f8;stroke-width:0.564705" d="m 166.8703,418.70752 c -8.06894,-0.81077 -19.5689,-2.74764 -26.80478,-4.51457 C 79.062549,399.29656 29.581669,353.72314 9.6501219,294.07633 3.3479899,275.21668 0.50512746,257.26503 0.50512746,236.329 c 0,-20.9849 2.84032334,-38.88015 9.18425694,-57.86478 C 34.640546,103.79629 104.6039,53.368472 183.24674,53.368472 c 37.01825,0 72.01068,10.865608 102.94382,31.965398 3.95422,2.697223 7.52802,4.736559 8.30047,4.736559 3.64931,0 15.23053,1.91882 21.89935,3.628365 35.03328,8.980746 64.7063,33.674526 80.93879,67.356946 9.61176,19.9444 14.47694,40.73012 16.03263,68.4968 1.60331,28.61678 5.37465,46.15481 13.41831,62.39989 9.3088,18.80015 24.09995,31.42497 40.61764,34.66872 l 4.62209,0.90769 0.1779,9.31763 c 0.0978,5.1247 0.11298,9.42491 0.0336,9.55604 -0.33286,0.54997 -9.85644,-1.31174 -14.82039,-2.89716 -18.29393,-5.84281 -34.44571,-19.49899 -45.06805,-38.10464 -10.06758,-17.63396 -15.96877,-40.46348 -17.63535,-68.22465 -1.72455,-28.72695 -4.39319,-43.14257 -11.06529,-59.7732 -10.11071,-25.20158 -28.33799,-45.40827 -51.4666,-57.05565 -4.98031,-2.50805 -10.85932,-4.89191 -10.85597,-4.40197 0.001,0.21118 1.6667,2.41691 3.70058,4.90161 42.54704,51.9778 53.09712,122.64886 27.62137,185.02509 -8.63385,21.13961 -21.24011,40.32849 -37.53633,57.1367 -15.5486,16.03712 -29.75923,26.62903 -48.56462,36.1977 -19.31879,9.82989 -36.238,15.19836 -58.1646,18.45562 -8.74927,1.29973 -32.91721,1.90854 -41.50581,1.04556 z m 26.25878,-46.03849 c 11.81146,-3.49745 21.53666,-13.53802 24.5785,-25.37552 1.07136,-4.16929 1.20943,-11.8458 0.29455,-16.37644 -1.06427,-5.2704 -4.53347,-11.9151 -8.45568,-16.1955 -13.71117,-14.96333 -36.96023,-15.58651 -51.12749,-1.37047 -6.90807,6.93186 -10.44089,15.42901 -10.45793,25.15341 -0.0295,16.83168 11.39306,30.99928 27.99463,34.72223 4.695,1.05287 12.60134,0.79611 17.17342,-0.55771 z m -86.4126,-51.80885 c 5.22015,-1.84909 11.01022,-5.74255 14.75774,-9.92366 3.02745,-3.37773 6.73699,-10.46959 7.78558,-14.88443 4.26818,-17.96994 -5.39186,-35.92809 -22.63968,-42.08751 -5.38758,-1.92398 -14.782919,-2.4027 -20.263176,-1.03247 -9.846547,2.46193 -18.686327,9.52544 -23.037829,18.40859 -5.25753,10.73271 -5.297048,21.42985 -0.117875,31.90583 4.552352,9.20811 11.895006,15.26552 22.351554,18.43918 5.205961,1.58006 15.506826,1.17826 21.163686,-0.82553 z m 174.51389,0.69927 c 6.45401,-1.78849 10.46018,-4.17452 15.54268,-9.25702 7.13091,-7.1309 10.42641,-14.99089 10.42641,-24.86764 0,-9.85831 -3.28814,-17.71091 -10.42641,-24.89986 -7.10403,-7.15447 -14.83665,-10.39419 -24.80903,-10.39419 -16.54131,0 -30.34449,10.53914 -34.51846,26.35589 -1.15161,4.36386 -1.1314,13.27177 0.0404,17.81006 3.17579,12.29958 13.59752,22.65378 25.76532,25.59839 4.8309,1.16908 13.08573,1.01039 17.97909,-0.34563 z m -92.88434,-65.77627 c 9.09047,-2.36777 14.92093,-9.96963 14.92093,-19.45418 0,-9.58588 -5.86047,-17.1288 -15.15907,-19.51099 -6.98327,-1.78903 -14.36898,0.44355 -19.4202,5.87042 -4.07832,4.38162 -5.13333,7.18505 -5.13333,13.64057 0,6.45549 1.05916,9.27068 5.12214,13.61433 5.33094,5.6992 12.28397,7.76354 19.66953,5.83985 z m -82.18151,-36.89856 c 17.51277,-6.0909 27.39408,-24.17985 23.09528,-42.27871 -1.05369,-4.4363 -4.76365,-11.51285 -7.82868,-14.93279 -3.79592,-4.23547 -10.07279,-8.3738 -15.29499,-10.08395 -3.55008,-1.16258 -5.30897,-1.37767 -11.265705,-1.37767 -5.937949,0 -7.720189,0.21663 -11.223914,1.36423 -8.722986,2.85711 -16.326216,9.46492 -20.39924,17.72859 -5.230015,10.61105 -5.203672,21.26213 0.07918,32.01298 4.175762,8.49786 12.024561,15.07338 21.379284,17.91102 5.766434,1.74919 15.908325,1.58674 21.458785,-0.3437 z m 174.234,0.7771 c 6.38413,-1.62282 11.43748,-4.56654 16.37453,-9.53865 7.13827,-7.18895 10.42641,-15.04155 10.42641,-24.89986 0,-9.85832 -3.28814,-17.71092 -10.42641,-24.89986 -7.07,-7.1202 -14.84257,-10.3942 -24.67614,-10.3942 -6.64925,0 -9.9634,0.76514 -16.13101,3.72421 -9.06501,4.34917 -15.91647,12.76997 -18.48559,22.71978 -1.18449,4.58731 -1.20653,13.43225 -0.0443,17.78823 3.31187,12.41301 12.74509,21.8963 25.1518,25.28529 4.64529,1.2689 13.25595,1.37287 17.81074,0.21506 z m -85.9818,-51.88474 c 11.46518,-3.84873 20.23297,-13.21988 23.30306,-24.90664 1.15233,-4.38649 1.15413,-13.10844 0.004,-17.50585 -3.11084,-11.89005 -12.81705,-21.9071 -24.57647,-25.3635 -18.99488,-5.5831 -39.80157,6.51526 -44.34492,25.78501 -1.06563,4.51967 -1.06617,12.1409 -0.001,16.65782 3.04186,12.90129 13.75179,23.43091 26.86305,26.41082 5.3666,1.2197 13.26043,0.76607 18.75283,-1.07766 z" id="path2"/><path style="fill:#7749f8;stroke-width:0.0352941" d="m 61.011067,195.53789 c -2.139084,-6.80627 -2.193675,-13.4218 -0.166122,-20.13128 0.904414,-2.99286 2.338157,-6.22114 3.877338,-8.73043 3.253683,-5.30439 7.939638,-9.73624 13.445229,-12.71611 l 0.361761,-0.19581 v 0.0984 c 0,0.0913 -0.04715,0.12429 -0.644115,0.45145 -1.773637,0.97202 -3.629458,2.20983 -5.159215,3.44113 -5.978569,4.81214 -10.255509,11.51513 -12.121545,18.99735 -1.311709,5.25955 -1.367317,10.90856 -0.160001,16.25292 0.180993,0.80118 0.6555,2.55717 0.775537,2.86998 0.01518,0.0396 0.0047,0.0594 -0.03066,0.0594 -0.03716,0 -0.09145,-0.12094 -0.178228,-0.39707 z" id="path3"/></svg>